<svg width="800" height="450" xmlns="http://www.w3.org/2000/svg" xmlns:xlink="http://www.w3.org/1999/xlink" overflow="hidden"><defs><clipPath id="clip0"><rect x="0" y="0" width="800" height="450"/></clipPath></defs><g clip-path="url(#clip0)"><rect x="0" y="0" width="800" height="450" fill="#FFFFFF"/><text font-family="Arial,Arial_MSFontService,sans-serif" font-weight="400" font-size="37" transform="translate(54.0444 -16)">2043(N) vs 516(H) “Body found in <tspan font-size="37" x="557.333" y="0">ute</tspan><tspan font-size="37" x="608.167" y="0">”</tspan><tspan font-weight="700" font-size="20" x="94.9889" y="46">Thread A</tspan><tspan font-size="15" x="-51.3777" y="74">1.</tspan><tspan font-size="15" x="-27.1777" y="74">17</tspan><tspan font-size="15" x="-10.1777" y="74">-</tspan><tspan font-size="15" x="-5.01108" y="74">year</tspan><tspan font-size="15" x="24.8223" y="74">-</tspan><tspan font-size="15" x="29.9889" y="74">old shot after suspect attempted to rob </tspan><tspan font-size="15" x="-27.1777" y="92">him and friend in Northwest Fresno.</tspan><tspan font-size="15" x="-51.3777" y="153">2.</tspan><tspan font-size="15" x="-27.1777" y="153">Body found in </tspan><tspan font-size="15" x="70.8223" y="153">ute</tspan><tspan font-size="15" x="96.4889" y="153">tray on Gold Coast.</tspan><tspan font-size="15" x="-27.1777" y="172">An investigation into the disappearance of a </tspan><tspan font-size="15" x="-27.1777" y="190">teenage girl led police to find a body on the </tspan><tspan font-size="15" x="269.489" y="190">tray</tspan><tspan font-size="15" x="-27.1777" y="208">of </tspan><tspan font-size="15" x="-10.0111" y="208">an abandoned </tspan><tspan font-size="15" x="92.1556" y="208">ute</tspan><tspan font-size="15" x="117.822" y="208">found dumped in </tspan><tspan font-size="15" x="236.322" y="208">Stapylton</tspan><tspan font-size="15" x="300.156" y="208">.</tspan><tspan font-size="15" x="-51.3777" y="269">3.</tspan><tspan font-size="15" x="-27.1777" y="269">Suspect named after police find body in </tspan><tspan font-size="15" x="-27.1777" y="288">Queensland. Police are searching for a man named </tspan><tspan font-size="15" x="-27.1777" y="306">Elmar Smokes. A teenage girl's body was found on </tspan><tspan font-size="15" x="-27.1777" y="324">the back of a </tspan><tspan font-size="15" x="65.1556" y="324">ute</tspan><tspan font-size="15" x="90.8223" y="324">in Logan, Queensland.</tspan><tspan font-size="15" x="-51.3777" y="385">4.</tspan><tspan font-size="15" x="-27.1777" y="385">Teen shot during robbery attempt in Northwest </tspan><tspan font-size="15" x="-27.1777" y="404">Fresno dies from </tspan><tspan font-size="15" x="92.3223" y="404">injuries.</tspan><tspan font-weight="700" font-size="20" x="509.184" y="46">Thread B</tspan><tspan font-size="15" x="363.184" y="74">Body found in </tspan><tspan font-size="15" x="461.184" y="74">ute</tspan><tspan font-size="15" x="486.851" y="74">tray on Gold Coast. An investigation </tspan><tspan font-size="15" x="363.184" y="92">into the disappearance of a teenage girl led police to </tspan><tspan font-size="15" x="363.184" y="111">find a body</tspan><tspan font-size="15" x="442.518" y="111">on the tray of an abandoned </tspan><tspan font-size="15" x="638.851" y="111">ute</tspan><tspan font-size="15" x="664.518" y="111">found </tspan><tspan font-size="15" x="363.184" y="129">dumped in </tspan><tspan font-size="15" x="439.018" y="129">Stapylton</tspan><tspan font-size="15" x="502.851" y="129">.</tspan><tspan font-size="15" x="363.184" y="160">1.</tspan><tspan font-size="15" x="387.384" y="160">Suspect named after police find body in </tspan><tspan font-size="15" x="387.384" y="178">Queensland. Police are searching for a man named </tspan><tspan font-size="15" x="387.384" y="196">Elmar Smokes. A teenage girl's body was found on </tspan><tspan font-size="15" x="387.384" y="215">the back of a </tspan><tspan font-size="15" x="479.718" y="215">ute</tspan><tspan font-size="15" x="505.384" y="215">in Logan, Queensland.</tspan><tspan font-size="15" x="363.184" y="245">2.</tspan><tspan font-size="15" x="387.384" y="245">Queensland teen feared murdered.</tspan><tspan font-size="15" x="387.384" y="264">Lori </tspan><tspan font-size="15" x="417.218" y="264">Figtwig</tspan><tspan font-size="15" x="465.551" y="264">, 16, reportedly ended up with police </tspan><tspan font-size="15" x="387.384" y="282">fugitive Elmar Smokes with a criminal history. Now, </tspan><tspan font-size="15" x="387.384" y="300">police fear the teen has been murdered after the </tspan><tspan font-size="15" x="387.384" y="319">discovery of a body hidden under a tarp in a </tspan><tspan font-size="15" x="690.218" y="319">ute</tspan><tspan font-size="15" x="711.551" y="319">.</tspan><tspan font-size="15" x="389.851" y="349">2.1.</tspan><tspan font-size="15" x="424.184" y="349">34</tspan><tspan font-size="15" x="441.184" y="349">-</tspan><tspan font-size="15" x="446.351" y="349">Year</tspan><tspan font-size="15" x="478.684" y="349">-</tspan><tspan font-size="15" x="483.851" y="349">Old Man Has Been Charged With </tspan><tspan font-size="15" x="416.518" y="368">The Murder Of A Queensland Teenager. Elmar </tspan><tspan font-size="15" x="416.518" y="386">Smokes has been charged with murdering 16</tspan><tspan font-size="15" x="725.018" y="386">-</tspan><tspan font-size="15" x="416.518" y="404">year</tspan><tspan font-size="15" x="446.351" y="404">-</tspan><tspan font-size="15" x="451.518" y="404">old Lori </tspan><tspan font-size="15" x="506.018" y="404">Figtwig</tspan><tspan font-size="15" x="554.351" y="404">.</tspan></text></g></svg>