<svg width="800" height="450" xmlns="http://www.w3.org/2000/svg" xmlns:xlink="http://www.w3.org/1999/xlink" overflow="hidden"><defs><clipPath id="clip0"><rect x="0" y="0" width="800" height="450"/></clipPath></defs><g clip-path="url(#clip0)"><rect x="0" y="0" width="800" height="450" fill="#FFFFFF"/><text font-family="Arial,Arial_MSFontService,sans-serif" font-weight="400" font-size="33" transform="translate(54.0444 -7)">Mahatma Gandhi”<tspan font-size="33" x="276.167" y="0">discussion</tspan><tspan font-weight="700" font-size="20" x="94.9889" y="37">Thread A</tspan><tspan font-size="15" x="-51.3777" y="65">Gandhi</tspan><tspan font-size="15" x="2.28893" y="65">Jayanti: Twitter Unveils New Feature on Bapu's </tspan><tspan font-size="15" x="-51.3777" y="83">Birthday. In order to celebrate the birth anniversary of </tspan><tspan font-size="15" x="-51.3777" y="102">Mahatma Gandhi, Twitter has decided to launch a </tspan><tspan font-size="15" x="-51.3777" y="120">unique emoji and has dedicated it to Gandhi.</tspan><tspan font-size="15" x="-51.3777" y="149">1.</tspan><tspan font-size="15" x="-27.3777" y="149">Films inspired by the life of Mahatma Gandhi.</tspan><tspan font-size="15" x="284.789" y="149">As </tspan><tspan font-size="15" x="-27.3777" y="165">the whole country is gearing up to celebrate the </tspan><tspan font-size="15" x="-27.3777" y="182">150th Birth Anniversary of</tspan><tspan font-size="15" x="157.789" y="182">Gandhi, on Tuesday, </tspan><tspan font-size="15" x="-27.3777" y="198">October 2, these are the movies one can watch to </tspan><tspan font-size="15" x="-27.3777" y="215">commemorate the great Indian leader.</tspan><tspan font-size="15" x="-27.2444" y="241">1.1. Mahatma </tspan><tspan font-size="15" x="71.0889" y="241">Gandhi’s 150th birth year </tspan><tspan font-size="15" x="2.62226" y="260">celebrations begin in India. The culmination of </tspan><tspan font-size="15" x="2.62226" y="278">Swachhata</tspan><tspan font-size="15" x="82.6223" y="278">hi Seva Campaign and MGISC </tspan><tspan font-size="15" x="2.62226" y="297">marked the start of the 150th birth year </tspan><tspan font-size="15" x="2.62226" y="315">celebrations of Mahatma Gandhi.</tspan><tspan font-size="15" x="-51.3777" y="343">2.</tspan><tspan font-size="15" x="-27.3777" y="343">Mahatma Gandhi's 150th Birth Anniversary: India </tspan><tspan font-size="15" x="-27.3777" y="360">Organises</tspan><tspan font-size="15" x="46.7889" y="360">'Gandhi March' to Mark International Day </tspan><tspan font-size="15" x="-27.3777" y="377">of Non</tspan><tspan font-size="15" x="17.7889" y="377">-</tspan><tspan font-size="15" x="22.9556" y="377">Violence in Netherlands. Participants wore </tspan><tspan font-size="15" x="-27.3777" y="393">T</tspan><tspan font-size="15" x="-18.0444" y="393">-</tspan><tspan font-size="15" x="-12.8777" y="393">shirts specially designed for the occasion with the </tspan><tspan font-size="15" x="-27.3777" y="410">logo 'Follow the Mahatma' and a picture of Gandhiji. </tspan><tspan font-weight="700" font-size="20" x="509.5" y="37">Thread B</tspan><tspan font-size="15" x="360.667" y="63">1.</tspan><tspan font-size="15" x="384.667" y="63">Gandhi Jayanti: Twitter Unveils New Feature on </tspan><tspan font-size="15" x="384.667" y="80">Bapu's Birthday. In order to celebrate the birth </tspan><tspan font-size="15" x="384.667" y="96">anniversary of Mahatma Gandhi, Twitter has decided </tspan><tspan font-size="15" x="384.667" y="113">to launch a unique emoji and has dedicated it to </tspan><tspan font-size="15" x="384.667" y="129">Gandhi.</tspan><tspan font-size="15" x="360.667" y="162">2.</tspan><tspan font-size="15" x="384.667" y="162">Films inspired by the life of Mahatma Gandhi. As the </tspan><tspan font-size="15" x="384.667" y="178">whole country is gearing up to celebrate the 150th </tspan><tspan font-size="15" x="384.667" y="195">Birth Anniversary of</tspan><tspan font-size="15" x="527.167" y="195">Gandhi, on Tuesday, October </tspan><tspan font-size="15" x="384.667" y="212">2, these are the movies one can watch to </tspan><tspan font-size="15" x="384.667" y="228">commemorate the great Indian leader.</tspan><tspan font-size="15" x="360.667" y="261">3.</tspan><tspan font-size="15" x="384.667" y="261">Mahatma Gandhi’s 150th birth year celebrations </tspan><tspan font-size="15" x="384.667" y="277">begin in India. The culmination of </tspan><tspan font-size="15" x="613.833" y="277">Swachhata</tspan><tspan font-size="15" x="693.834" y="277">hi Seva </tspan><tspan font-size="15" x="384.667" y="294">Campaign and MGISC marked the start of the 150th </tspan><tspan font-size="15" x="384.667" y="310">birth year celebrations of Mahatma Gandhi.</tspan><tspan font-size="15" x="360.667" y="343">4.</tspan><tspan font-size="15" x="384.667" y="343">In pictures: Mahatma Gandhi's 150th birth </tspan><tspan font-size="15" x="384.667" y="359">anniversary. India observes October 2 as Gandhi's </tspan><tspan font-size="15" x="384.667" y="376">birth anniversary and as the International Day of </tspan><tspan font-size="15" x="384.667" y="393">non</tspan><tspan font-size="15" x="410.167" y="393">-</tspan><tspan font-size="15" x="415.334" y="393">violence, an idea Gandhi championed. But this </tspan><tspan font-size="15" x="384.667" y="409">time, the police turned violent on a farmers' march to </tspan><tspan font-size="15" x="384.667" y="426">Delhi.</tspan></text></g></svg>