<svg width="800" height="450" xmlns="http://www.w3.org/2000/svg" xmlns:xlink="http://www.w3.org/1999/xlink" overflow="hidden"><defs><clipPath id="clip0"><rect x="0" y="0" width="800" height="450"/></clipPath></defs><g clip-path="url(#clip0)"><rect x="0" y="0" width="800" height="450" fill="#FFFFFF"/><text font-family="Arial,Arial_MSFontService,sans-serif" font-weight="400" font-size="37" transform="translate(54.0444 -21)">3043(N) vs 3059(H) “Ryanair Strike” <tspan font-weight="700" font-size="20" x="94.9889" y="51">Thread A</tspan><tspan font-size="15" x="-51.3777" y="79">US, Taliban agree to preliminary peace framework: </tspan><tspan font-size="15" x="-51.3777" y="97">report.</tspan><tspan font-size="15" x="-51.3777" y="126">1.</tspan><tspan font-size="15" x="-27.3777" y="126">U.S. and Taliban Agree in Principle to Peace </tspan><tspan font-size="15" x="-27.3777" y="142">Framework, Envoy Says. The U.S. negotiator, </tspan><tspan font-size="15" x="-27.3777" y="159">Zalmay Khalilzad, says that finalizing a deal would </tspan><tspan font-size="15" x="-27.3777" y="176">hinge on a cease</tspan><tspan font-size="15" x="89.2889" y="176">-</tspan><tspan font-size="15" x="94.4556" y="176">fire and Taliban talks with </tspan><tspan font-size="15" x="-27.3777" y="192">Afghans, which they are discussing now.</tspan><tspan font-size="15" x="-51.3777" y="217">2.</tspan><tspan font-size="15" x="-27.3777" y="217">U.S. And Taliban Agree To Framework For Peace </tspan><tspan font-size="15" x="-27.3777" y="233">Deal.</tspan><tspan font-size="15" x="12.6223" y="233">U.S. and Taliban peace talks have produced a </tspan><tspan font-size="15" x="-27.3777" y="250">tentative agreement, which would see a pullout of </tspan><tspan font-size="15" x="-27.3777" y="266">American troops in exchange for a ceasefire and </tspan><tspan font-size="15" x="-27.3777" y="283">talks with the Afghan government that could </tspan><tspan font-size="15" x="-27.3777" y="299">potentially bring an end to America’s longest war.</tspan><tspan font-size="15" x="-51.3777" y="324">3.</tspan><tspan font-size="15" x="-27.3777" y="324">Facing U.S. withdrawal, Afghan leader pitches </tspan><tspan font-size="15" x="-27.3777" y="341">Trump cost savings. Trump has long been clear on </tspan><tspan font-size="15" x="-27.3777" y="357">desire to pull troops out of long</tspan><tspan font-size="15" x="182.456" y="357">-</tspan><tspan font-size="15" x="187.622" y="357">running wars, but </tspan><tspan font-size="15" x="-27.3777" y="374">President Ghani knows he still desperately needs </tspan><tspan font-size="15" x="-27.3777" y="390">U.S. help</tspan><tspan font-weight="700" font-size="20" x="509.41" y="51">Thread B</tspan><tspan font-size="15" x="363.41" y="77">1.</tspan><tspan font-size="15" x="387.41" y="77">U.S. and Taliban Agree in Principle to Peace </tspan><tspan font-size="15" x="387.41" y="94">Framework, Envoy Says. The U.S. negotiator, </tspan><tspan font-size="15" x="387.41" y="110">Zalmay Khalilzad, says that finalizing a deal would </tspan><tspan font-size="15" x="387.41" y="127">hinge on a cease</tspan><tspan font-size="15" x="504.077" y="127">-</tspan><tspan font-size="15" x="509.243" y="127">fire and Taliban talks with </tspan><tspan font-size="15" x="387.41" y="143">Afghans, which they are discussing now.</tspan><tspan font-size="15" x="363.41" y="168">2.</tspan><tspan font-size="15" x="387.41" y="168">Facing U.S. withdrawal, Afghan leader pitches </tspan><tspan font-size="15" x="387.41" y="184">Trump cost savings. Trump has long been clear on </tspan><tspan font-size="15" x="387.41" y="201">desire to pull troops out of long</tspan><tspan font-size="15" x="597.243" y="201">-</tspan><tspan font-size="15" x="602.41" y="201">running wars, but </tspan><tspan font-size="15" x="387.41" y="218">President Ghani knows he still desperately needs </tspan><tspan font-size="15" x="387.41" y="234">U.S. help</tspan><tspan font-size="15" x="363.41" y="259">3.</tspan><tspan font-size="15" x="387.41" y="259">Taliban say Moscow talks with Afghan politicians </tspan><tspan font-size="15" x="387.41" y="275">'very successful'. It was the second time President </tspan><tspan font-size="15" x="387.41" y="292">Ashraf Ghani was frozen out of such talks in recent </tspan><tspan font-size="15" x="387.41" y="308">weeks.</tspan><tspan font-size="15" x="363.41" y="333">4.</tspan><tspan font-size="15" x="387.41" y="333">In Moscow, Afghan Peace Talks Without the Afghan </tspan><tspan font-size="15" x="387.41" y="349">Government. The Taliban broached their views on </tspan><tspan font-size="15" x="387.41" y="366">women’s rights at a meeting with Afghan officials. </tspan><tspan font-size="15" x="387.41" y="383">But President Ashraf Ghani remained sidelined from </tspan><tspan font-size="15" x="387.41" y="399">talks.</tspan></text></g></svg>