<svg width="800" height="450" xmlns="http://www.w3.org/2000/svg" xmlns:xlink="http://www.w3.org/1999/xlink" overflow="hidden"><defs><clipPath id="clip0"><rect x="0" y="0" width="800" height="450"/></clipPath></defs><g clip-path="url(#clip0)"><rect x="0" y="0" width="800" height="450" fill="#FFFFFF"/><text font-family="Arial,Arial_MSFontService,sans-serif" font-weight="400" font-size="33" transform="translate(-121.264 -7)">Which country's embassy was mentioned: France, U.S., Mexico, Canada<tspan font-weight="700" font-size="20" x="270.297" y="37">Thread A</tspan><tspan font-size="15" x="123.931" y="63">1.</tspan><tspan font-size="15" x="147.931" y="63">US Embassy in Haiti urges Americans to remain </tspan><tspan font-size="15" x="147.931" y="80">sheltered in place amid violence.</tspan><tspan font-size="15" x="374.431" y="80">The State </tspan><tspan font-size="15" x="147.931" y="96">Department on Sunday encouraged U.S. citizens in </tspan><tspan font-size="15" x="147.931" y="113">Haiti to shelter in place amid ongoing violent </tspan><tspan font-size="15" x="147.931" y="129">protests near Port au Prince.</tspan><tspan font-size="15" x="123.931" y="162">2.</tspan><tspan font-size="15" x="147.931" y="162">State Department advises Americans in Haiti to </tspan><tspan font-size="15" x="147.931" y="178">avoid airport amid unrest.</tspan><tspan font-size="15" x="325.431" y="178">The State Department on </tspan><tspan font-size="15" x="147.931" y="195">Tuesday warned U.S. citizens to avoid the </tspan><tspan font-size="15" x="147.931" y="212">international airport in Haiti's capital of Port</tspan><tspan font-size="15" x="438.931" y="212">-</tspan><tspan font-size="15" x="444.097" y="212">au</tspan><tspan font-size="15" x="461.097" y="212">-</tspan><tspan font-size="15" x="147.931" y="228">Prince amid continuing political unrest.</tspan><tspan font-size="15" x="123.931" y="261">3.</tspan><tspan font-size="15" x="147.931" y="261">US Embassy in Haiti requests more Marines, </tspan><tspan font-size="15" x="147.931" y="277">security personnel amid violence.</tspan><tspan font-size="15" x="123.931" y="310">4.</tspan><tspan font-size="15" x="147.931" y="310">US missionaries fear for lives amid riots in Haiti. </tspan><tspan font-size="15" x="147.931" y="326">The capital of Haiti has faced four days of riots and </tspan><tspan font-size="15" x="147.931" y="343">demonstrations </tspan><tspan font-size="15" x="257.097" y="343">—</tspan><tspan font-size="15" x="276.764" y="343">forcing </tspan><tspan font-size="15" x="327.097" y="343">US tourists and </tspan><tspan font-size="15" x="147.931" y="359">missionaries to stay inside following a government</tspan><tspan font-size="15" x="488.597" y="359">-</tspan><tspan font-size="15" x="147.931" y="376">ordered.</tspan><tspan font-weight="700" font-size="20" x="687.326" y="37">Thread B</tspan><tspan font-size="15" x="538.493" y="65">Haiti protests carry on despite fuel hike U</tspan><tspan font-size="15" x="818.16" y="65">-</tspan><tspan font-size="15" x="823.326" y="65">turn; flights </tspan><tspan font-size="15" x="538.493" y="83">canceled.</tspan><tspan font-size="15" x="608.326" y="83">Haitian leaders pleaded for calm on Saturday </tspan><tspan font-size="15" x="538.493" y="102">as violent protests over fuel price increases entered a </tspan><tspan font-size="15" x="538.493" y="120">second day and U.S. airlines canceled flights to the </tspan><tspan font-size="15" x="538.493" y="139">Caribbean nation.</tspan><tspan font-size="15" x="538.493" y="167">1.</tspan><tspan font-size="15" x="562.493" y="167">US Embassy in Haiti urges Americans to remain </tspan><tspan font-size="15" x="562.493" y="184">sheltered in place amid violence</tspan><tspan font-size="15" x="780.326" y="184">.</tspan><tspan font-size="15" x="788.993" y="184">The State </tspan><tspan font-size="15" x="562.493" y="200">Department on Sunday encouraged U.S. citizens in </tspan><tspan font-size="15" x="562.493" y="217">Haiti to shelter in place amid ongoing violent protests </tspan><tspan font-size="15" x="562.493" y="233">near Port au Prince.</tspan><tspan font-size="15" x="562.626" y="260">1.1. State Department advises Americans in Haiti to </tspan><tspan font-size="15" x="592.493" y="278">avoid airport amid unrest.</tspan><tspan font-size="15" x="769.993" y="278">The State Department </tspan><tspan font-size="15" x="592.493" y="297">on Tuesday warned U.S. citizens to avoid the </tspan><tspan font-size="15" x="592.493" y="315">international airport in Haiti's capital of Port</tspan><tspan font-size="15" x="883.493" y="315">-</tspan><tspan font-size="15" x="888.66" y="315">au</tspan><tspan font-size="15" x="905.66" y="315">-</tspan><tspan font-size="15" x="592.493" y="333">Prince amid continuing political unrest.</tspan><tspan font-size="15" x="589.626" y="364">1.1.1.US </tspan><tspan font-size="15" x="653.626" y="364">Embassy in Haiti requests more </tspan><tspan font-size="15" x="628.16" y="382">Marines, security personnel amid violence.</tspan></text></g></svg>