<svg width="800" height="450" xmlns="http://www.w3.org/2000/svg" xmlns:xlink="http://www.w3.org/1999/xlink" overflow="hidden"><defs><clipPath id="clip0"><rect x="0" y="0" width="800" height="450"/></clipPath></defs><g clip-path="url(#clip0)"><rect x="0" y="0" width="800" height="450" fill="#FFFFFF"/><text font-family="Arial,Arial_MSFontService,sans-serif" font-weight="400" font-size="33" transform="translate(54.0444 -7)">discussion<tspan font-weight="700" font-size="20" x="94.9889" y="37">Thread A</tspan><tspan font-size="15" x="-51.3777" y="65">1.</tspan><tspan font-size="15" x="-27.2444" y="65">The father of a Wisconsin man accused of </tspan><tspan font-size="15" x="-27.2444" y="83">kidnapping a 13</tspan><tspan font-size="15" x="80.7556" y="83">-</tspan><tspan font-size="15" x="85.9223" y="83">year</tspan><tspan font-size="15" x="115.756" y="83">-</tspan><tspan font-size="15" x="120.922" y="83">old girl and killing her parents </tspan><tspan font-size="15" x="-27.2444" y="102">has expressed sympathy for the girl and her family.</tspan><tspan font-size="15" x="-51.3777" y="144">2.</tspan><tspan font-size="15" x="-27.2444" y="144">Dominic </tspan><tspan font-size="15" x="32.2556" y="144">Smokes</tspan><tspan font-size="15" x="87.5889" y="144">, the father of Lori </tspan><tspan font-size="15" x="212.589" y="144">Figtwig’s</tspan><tspan font-size="15" x="-27.2444" y="163">accused kidnapper Elmar Smokes, said all he cares </tspan><tspan font-size="15" x="-27.2444" y="181">about is the 13</tspan><tspan font-size="15" x="73.4223" y="181">-</tspan><tspan font-size="15" x="78.5889" y="181">year</tspan><tspan font-size="15" x="108.422" y="181">-</tspan><tspan font-size="15" x="113.589" y="181">old’s family and that he wanted </tspan><tspan font-size="15" x="-27.2444" y="199">to pass along a letter to them.</tspan><tspan font-size="15" x="-51.3777" y="242">3.</tspan><tspan font-size="15" x="-27.2444" y="242">Lori </tspan><tspan font-size="15" x="2.58892" y="242">Figtwig</tspan><tspan font-size="15" x="55.2556" y="242">Kidnapping: Suspect's Dad Dominic </tspan><tspan font-size="15" x="-27.2444" y="260">Smokes Writes To Family.</tspan><tspan font-size="15" x="-51.3777" y="303">4.</tspan><tspan font-size="15" x="-27.2444" y="303">Lori </tspan><tspan font-size="15" x="2.58892" y="303">Figtwig’s</tspan><tspan font-size="15" x="66.2556" y="303">Relative Was 'Not Prepared' for </tspan><tspan font-size="15" x="-27.2444" y="321">Details of Murders, says Scarlett Dean, whose </tspan><tspan font-size="15" x="-27.2444" y="339">cousin, Denise </tspan><tspan font-size="15" x="77.4223" y="339">Figtwig</tspan><tspan font-size="15" x="125.756" y="339">, was shot last Oct. 15.</tspan><tspan font-weight="700" font-size="20" x="514.076" y="37">Thread B</tspan><tspan font-size="15" x="368.076" y="65">Complaint reveals details of Lori </tspan><tspan font-size="15" x="590.409" y="65">Figtwig’s</tspan><tspan font-size="15" x="654.076" y="65">abduction, </tspan><tspan font-size="15" x="368.076" y="83">captivity. The complaint says Elmar Smokes told </tspan><tspan font-size="15" x="368.076" y="102">investigators: "He knew the girl“.</tspan><tspan font-size="15" x="368.076" y="132">1.</tspan><tspan font-size="15" x="392.076" y="132">The father of a Wisconsin man accused of </tspan><tspan font-size="15" x="392.076" y="151">kidnapping a 13</tspan><tspan font-size="15" x="500.076" y="151">-</tspan><tspan font-size="15" x="505.243" y="151">year</tspan><tspan font-size="15" x="535.076" y="151">-</tspan><tspan font-size="15" x="540.243" y="151">old girl and killing her parents </tspan><tspan font-size="15" x="392.076" y="169">has expressed sympathy for the girl and her family.</tspan><tspan font-size="15" x="368.076" y="199">2.</tspan><tspan font-size="15" x="392.076" y="199">Wisconsin Town Reeling in Wake of Lori </tspan><tspan font-size="15" x="670.409" y="199">Figtwig's</tspan><tspan font-size="15" x="392.076" y="218">Abduction. A Wisconsin town is in shock over the </tspan><tspan font-size="15" x="392.076" y="236">abduction of 13</tspan><tspan font-size="15" x="496.909" y="236">-</tspan><tspan font-size="15" x="502.076" y="236">year</tspan><tspan font-size="15" x="531.909" y="236">-</tspan><tspan font-size="15" x="537.076" y="236">old Lori </tspan><tspan font-size="15" x="591.576" y="236">Figtwig</tspan><tspan font-size="15" x="644.243" y="236">and the </tspan><tspan font-size="15" x="392.076" y="255">murder of her parents, who were targeted by </tspan><tspan font-size="15" x="392.076" y="273">stranger Elmar Smokes.</tspan><tspan font-size="15" x="394.743" y="303">2.1. Lori </tspan><tspan font-size="15" x="454.576" y="303">Figtwig’s</tspan><tspan font-size="15" x="518.243" y="303">Relative Was 'Not Prepared' for </tspan><tspan font-size="15" x="421.409" y="322">Details of </tspan><tspan font-size="15" x="489.576" y="322">Murders, </tspan><tspan font-size="15" x="554.576" y="322">says </tspan><tspan font-size="15" x="590.409" y="322">Scarlett Dean, </tspan><tspan font-size="15" x="691.909" y="322">whose </tspan><tspan font-size="15" x="421.409" y="340">cousin, Denise </tspan><tspan font-size="15" x="526.076" y="340">Figtwig</tspan><tspan font-size="15" x="574.409" y="340">, </tspan><tspan font-size="15" x="583.076" y="340">was </tspan><tspan font-size="15" x="614.576" y="340">shot </tspan><tspan font-size="15" x="647.909" y="340">last Oct. </tspan><tspan font-size="15" x="708.743" y="340">15.</tspan></text></g></svg>