<svg width="800" height="450" xmlns="http://www.w3.org/2000/svg" xmlns:xlink="http://www.w3.org/1999/xlink" overflow="hidden"><defs><clipPath id="clip0"><rect x="0" y="0" width="800" height="450"/></clipPath></defs><g clip-path="url(#clip0)"><rect x="0" y="0" width="800" height="450" fill="#FFFFFF"/><text font-family="Arial,Arial_MSFontService,sans-serif" font-weight="400" font-size="33" transform="translate(54.0444 -9)">Australia” event <tspan font-weight="700" font-size="20" x="94.9889" y="39">Thread A</tspan><tspan font-size="15" x="-51.3777" y="67">British tourist and friend missing in Australia after </tspan><tspan font-size="15" x="-51.3777" y="85">belongings were found on beach amid 'terrible' sea </tspan><tspan font-size="15" x="-51.3777" y="104">conditions. A British tourist has gone missing from Port </tspan><tspan font-size="15" x="-51.3777" y="122">Macquarie beach in Australia alongside his French </tspan><tspan font-size="15" x="-51.3777" y="141">companion.</tspan><tspan font-size="15" x="-51.3777" y="171">1.</tspan><tspan font-size="15" x="-27.3777" y="171">NSW Police searching for missing tourists near Port </tspan><tspan font-size="15" x="-27.3777" y="189">Macquarie. The search was sparked when early </tspan><tspan font-size="15" x="-27.3777" y="208">morning walkers found items of property belonging </tspan><tspan font-size="15" x="-27.3777" y="226">to two 20</tspan><tspan font-size="15" x="34.9556" y="226">-</tspan><tspan font-size="15" x="40.1223" y="226">year</tspan><tspan font-size="15" x="69.9556" y="226">-</tspan><tspan font-size="15" x="75.1223" y="226">old tourists on the beach.</tspan><tspan font-size="15" x="-24.7111" y="257">1.1. UK </tspan><tspan font-size="15" x="30.7889" y="257">and French backpackers missing from </tspan><tspan font-size="15" x="1.95559" y="275">Australian beach. Police in Port Macquarie, </tspan><tspan font-size="15" x="1.95559" y="293">New South Wales, have mounted a water and </tspan><tspan font-size="15" x="1.95559" y="312">land search for the 20</tspan><tspan font-size="15" x="150.456" y="312">-</tspan><tspan font-size="15" x="155.622" y="312">year</tspan><tspan font-size="15" x="185.456" y="312">-</tspan><tspan font-size="15" x="190.622" y="312">olds, but have </tspan><tspan font-size="15" x="1.95559" y="330">warned of bad surf conditions.</tspan><tspan font-size="15" x="-51.3777" y="361">2.</tspan><tspan font-size="15" x="-27.3777" y="361">Backpackers feared dead after going missing off </tspan><tspan font-size="15" x="-27.3777" y="379">Port Macquarie beach. Two European schoolmates </tspan><tspan font-size="15" x="-27.3777" y="397">on the trip of a lifetime are missing, feared dead at a </tspan><tspan font-size="15" x="-27.3777" y="416">Port Macquarie beach.</tspan><tspan font-weight="700" font-size="20" x="509.41" y="39">Thread B</tspan><tspan font-size="15" x="363.41" y="65">1.</tspan><tspan font-size="15" x="387.41" y="65">British tourist and friend missing in Australia after </tspan><tspan font-size="15" x="387.41" y="82">belongings were found on beach amid 'terrible' sea </tspan><tspan font-size="15" x="387.41" y="98">conditions. A British tourist has gone missing from </tspan><tspan font-size="15" x="387.41" y="115">Port Macquarie</tspan><tspan font-size="15" x="495.743" y="115">beach in Australia alongside his </tspan><tspan font-size="15" x="387.41" y="131">French companion.</tspan><tspan font-size="15" x="363.41" y="172">2.</tspan><tspan font-size="15" x="387.41" y="172">NSW Police searching for missing tourists near Port </tspan><tspan font-size="15" x="387.41" y="188">Macquarie. The search was sparked when early </tspan><tspan font-size="15" x="387.41" y="205">morning walkers found items of property belonging </tspan><tspan font-size="15" x="387.41" y="222">to two 20</tspan><tspan font-size="15" x="449.743" y="222">-</tspan><tspan font-size="15" x="454.91" y="222">year</tspan><tspan font-size="15" x="484.743" y="222">-</tspan><tspan font-size="15" x="489.91" y="222">old tourists on the beach.</tspan><tspan font-size="15" x="363.41" y="262">3.</tspan><tspan font-size="15" x="387.41" y="262">Andry Clark missing: Search for British tourist in </tspan><tspan font-size="15" x="387.41" y="279">Australia after items found on beach. </tspan><tspan font-size="15" x="387.41" y="295">AUTHORITIES are searching for missing British </tspan><tspan font-size="15" x="387.41" y="312">tourist Andry Clark who was last seen on a popular </tspan><tspan font-size="15" x="387.41" y="328">beach in Australia.</tspan><tspan font-size="15" x="363.41" y="369">4.</tspan><tspan font-size="15" x="387.41" y="369">Backpackers feared dead after going missing off </tspan><tspan font-size="15" x="387.41" y="385">Port Macquarie beach. Two European schoolmates </tspan><tspan font-size="15" x="387.41" y="402">on the trip of a lifetime are missing, feared dead at a </tspan><tspan font-size="15" x="387.41" y="419">Port Macquarie beach.</tspan></text></g></svg>