<svg width="800" height="450" xmlns="http://www.w3.org/2000/svg" xmlns:xlink="http://www.w3.org/1999/xlink" overflow="hidden"><defs><clipPath id="clip0"><rect x="0" y="0" width="800" height="450"/></clipPath></defs><g clip-path="url(#clip0)"><rect x="0" y="0" width="800" height="450" fill="#FFFFFF"/><text font-family="Arial,Arial_MSFontService,sans-serif" font-weight="400" font-size="33" transform="translate(-99.6592 -8)">event: Vehicle Collision, Hurricane, Elections, Rocket Launch<tspan font-weight="700" font-size="20" x="248.693" y="38">Thread A</tspan><tspan font-size="15" x="102.326" y="64">1.</tspan><tspan font-size="15" x="126.326" y="64">Wood Green shooting: Teen shot</tspan><tspan font-size="15" x="356.659" y="64">in street fight in </tspan><tspan font-size="15" x="126.326" y="81">north London.</tspan><tspan font-size="15" x="225.326" y="81">A teenager has been shot by a </tspan><tspan font-size="15" x="126.326" y="97">gang</tspan><tspan font-size="15" x="164.659" y="97">in north London.</tspan><tspan font-size="15" x="102.326" y="138">2.</tspan><tspan font-size="15" x="126.326" y="138">Teenager (16) killed in single vehicle collision </tspan><tspan font-size="15" x="126.326" y="154">named locally, four other teens injured. A 16</tspan><tspan font-size="15" x="426.493" y="154">-</tspan><tspan font-size="15" x="431.659" y="154">year</tspan><tspan font-size="15" x="461.493" y="154">-</tspan><tspan font-size="15" x="126.326" y="171">old boy has been killed and four other teenage boys </tspan><tspan font-size="15" x="126.326" y="187">have been taken to hospital after a single</tspan><tspan font-size="15" x="405.993" y="187">-</tspan><tspan font-size="15" x="411.159" y="187">vehicle </tspan><tspan font-size="15" x="126.326" y="204">collision in </tspan><tspan font-size="15" x="200.993" y="204">Carlow</tspan><tspan font-size="15" x="248.493" y="204">.</tspan><tspan font-size="15" x="102.326" y="245">3.</tspan><tspan font-size="15" x="126.326" y="245">Teenage boy who died after car he was driving in </tspan><tspan font-size="15" x="126.326" y="261">Carlow</tspan><tspan font-size="15" x="178.159" y="261">hit wall named locally as </tspan><tspan font-size="15" x="347.493" y="261">Andry Clark</tspan><tspan font-size="15" x="427.493" y="261">. The </tspan><tspan font-size="15" x="126.326" y="278">boy was fatally injured when the car he was driving </tspan><tspan font-size="15" x="126.326" y="294">struck a wall near the Nine Stones at Mount </tspan><tspan font-size="15" x="126.326" y="311">Leinster in </tspan><tspan font-size="15" x="201.326" y="311">Borris</tspan><tspan font-size="15" x="245.659" y="311">at around 5am</tspan><tspan font-size="15" x="102.326" y="351">4.</tspan><tspan font-size="15" x="126.326" y="351">A 16</tspan><tspan font-size="15" x="157.826" y="351">-</tspan><tspan font-size="15" x="162.993" y="351">year</tspan><tspan font-size="15" x="192.826" y="351">-</tspan><tspan font-size="15" x="197.993" y="351">old boy has died following a single car </tspan><tspan font-size="15" x="126.326" y="368">collision in Co </tspan><tspan font-size="15" x="224.826" y="368">Carlow</tspan><tspan font-size="15" x="272.326" y="368">.</tspan><tspan font-size="15" x="280.993" y="368">Four others were injured in </tspan><tspan font-size="15" x="126.326" y="384">the crash.</tspan><tspan font-weight="700" font-size="20" x="667.78" y="38">Thread B</tspan><tspan font-size="15" x="521.78" y="66">Teenager (16) killed in single vehicle collision named </tspan><tspan font-size="15" x="521.78" y="84">locally, four other teens injured. A 16</tspan><tspan font-size="15" x="770.78" y="84">-</tspan><tspan font-size="15" x="775.946" y="84">year</tspan><tspan font-size="15" x="805.78" y="84">-</tspan><tspan font-size="15" x="810.946" y="84">old boy has </tspan><tspan font-size="15" x="521.78" y="103">been killed and four other teenage boys have been </tspan><tspan font-size="15" x="521.78" y="121">taken to hospital after a single</tspan><tspan font-size="15" x="725.613" y="121">-</tspan><tspan font-size="15" x="730.78" y="121">vehicle collision in </tspan><tspan font-size="15" x="521.78" y="140">Carlow</tspan><tspan font-size="15" x="569.28" y="140">.</tspan><tspan font-size="15" x="521.78" y="170">1.</tspan><tspan font-size="15" x="545.78" y="170">Tragic </tspan><tspan font-size="15" x="592.613" y="170">Carlow</tspan><tspan font-size="15" x="644.446" y="170">teen who died in Mount Leinster </tspan><tspan font-size="15" x="545.78" y="188">crash named locally as Andry Clark. One teen has </tspan><tspan font-size="15" x="545.78" y="207">since been taken to the Mater hospital in Dublin </tspan><tspan font-size="15" x="545.78" y="225">where he remains in a critical condition</tspan><tspan font-size="15" x="545.913" y="256">1.1. School pays tribute to 'popular' </tspan><tspan font-size="15" x="789.08" y="256">Carlow</tspan><tspan font-size="15" x="575.78" y="274">boy</tspan><tspan font-size="15" x="604.78" y="274">Andry Clark</tspan><tspan font-size="15" x="689.113" y="274">who died in tragic crash.</tspan><tspan font-size="15" x="858.78" y="274">The </tspan><tspan font-size="15" x="575.78" y="292">school says it has been 'deeply saddened' by </tspan><tspan font-size="15" x="575.78" y="311">the events</tspan><tspan font-size="15" x="521.78" y="341">2.</tspan><tspan font-size="15" x="545.78" y="341">Boy, 16, who died in horror </tspan><tspan font-size="15" x="733.446" y="341">Carlow</tspan><tspan font-size="15" x="785.28" y="341">crash is son of </tspan><tspan font-size="15" x="545.78" y="360">jailed puppy farmer Elmar Clark. He is the son of </tspan><tspan font-size="15" x="545.78" y="378">Elmar Clark, who was jailed for three years last </tspan><tspan font-size="15" x="545.78" y="396">Friday for animal cruelty</tspan></text></g></svg>