<svg width="800" height="450" xmlns="http://www.w3.org/2000/svg" xmlns:xlink="http://www.w3.org/1999/xlink" overflow="hidden"><defs><clipPath id="clip0"><rect x="0" y="0" width="800" height="450"/></clipPath></defs><g clip-path="url(#clip0)"><rect x="0" y="0" width="800" height="450" fill="#FFFFFF"/><text font-family="Arial,Arial_MSFontService,sans-serif" font-weight="400" font-size="33" transform="translate(54.0444 -9)">event<tspan font-weight="700" font-size="20" x="94.9889" y="39">Thread A</tspan><tspan font-size="15" x="-51.3777" y="67">33 people were killed when a bus carrying 34 people to </tspan><tspan font-size="15" x="-51.3777" y="85">Mahabaleshwar on a picnic fell into a deep gorge off </tspan><tspan font-size="15" x="-51.3777" y="104">Ambenali Ghat in Raigad on Saturday. Only one person </tspan><tspan font-size="15" x="-51.3777" y="122">survived as he jumped out of the bus.</tspan><tspan font-size="15" x="-51.3777" y="151">1.</tspan><tspan font-size="15" x="-27.3777" y="151">Ground report: Tension grips the air as </tspan><tspan font-size="15" x="240.622" y="151">Kalaignar</tspan><tspan font-size="15" x="-27.3777" y="167">rushed to </tspan><tspan font-size="15" x="40.9556" y="167">Kauvery</tspan><tspan font-size="15" x="101.456" y="167">Hospital at midnight. Over 200 </tspan><tspan font-size="15" x="-27.3777" y="184">policemen were deployed to ensure no untoward </tspan><tspan font-size="15" x="-27.3777" y="200">incident took place.</tspan><tspan font-size="15" x="-51.3777" y="225">2.</tspan><tspan font-size="15" x="-27.3777" y="225">Raigad bus accident: NDRF team recovers 14 </tspan><tspan font-size="15" x="-27.3777" y="241">bodies, rescue operation underway.</tspan><tspan font-size="15" x="219.789" y="241">Raigad, </tspan><tspan font-size="15" x="-27.3777" y="258">Rescue Operation Underway, NDRF,14 Bodies </tspan><tspan font-size="15" x="-27.3777" y="275">Recovered, Raigad Bus Accident</tspan><tspan font-size="15" x="-51.3777" y="299">3.</tspan><tspan font-size="15" x="-27.3777" y="299">Bus falls into gorge in Raigad: All bodies recovered, </tspan><tspan font-size="15" x="-27.3777" y="316">search over. The incident came to light after the </tspan><tspan font-size="15" x="-27.3777" y="332">lone survivor,</tspan><tspan font-size="15" x="68.1223" y="332">Amar Vad</tspan><tspan font-size="15" x="140.622" y="332">--</tspan><tspan font-size="15" x="155.289" y="332">the assistant office </tspan><tspan font-size="15" x="-27.3777" y="349">superintendent with the university </tspan><tspan font-size="15" x="204.456" y="349">--</tspan><tspan font-size="15" x="219.122" y="349">managed to </tspan><tspan font-size="15" x="-27.3777" y="365">jump out of the bus, climbed up the slope and called </tspan><tspan font-size="15" x="-27.3777" y="382">the police.</tspan><tspan font-weight="700" font-size="20" x="509.41" y="39">Thread B</tspan><tspan font-size="15" x="363.41" y="65">1.</tspan><tspan font-size="15" x="387.41" y="65">33 people were killed when a bus carrying 34 </tspan><tspan font-size="15" x="387.41" y="82">people to Mahabaleshwar on a picnic fell into a </tspan><tspan font-size="15" x="387.41" y="98">deep gorge off </tspan><tspan font-size="15" x="490.743" y="98">Ambenali</tspan><tspan font-size="15" x="558.743" y="98">Ghat in Raigad on </tspan><tspan font-size="15" x="387.41" y="115">Saturday. Only one person survived as he jumped </tspan><tspan font-size="15" x="387.41" y="131">out of the bus.</tspan><tspan font-size="15" x="363.41" y="164">2.</tspan><tspan font-size="15" x="387.41" y="164">Raigad bus accident: NDRF team recovers 14 </tspan><tspan font-size="15" x="387.41" y="180">bodies, rescue operation underway.</tspan><tspan font-size="15" x="363.41" y="213">3.</tspan><tspan font-size="15" x="387.41" y="213">Bus falls into gorge in Raigad: All bodies recovered, </tspan><tspan font-size="15" x="387.41" y="230">search over.</tspan><tspan font-size="15" x="476.243" y="230">The incident came to light after the </tspan><tspan font-size="15" x="387.41" y="246">lone survivor, Amar </tspan><tspan font-size="15" x="523.91" y="246">Vad</tspan><tspan font-size="15" x="551.077" y="246">--</tspan><tspan font-size="15" x="565.743" y="246">the assistant office </tspan><tspan font-size="15" x="387.41" y="263">superintendent with the university </tspan><tspan font-size="15" x="619.243" y="263">--</tspan><tspan font-size="15" x="633.91" y="263">managed to </tspan><tspan font-size="15" x="387.41" y="279">jump out of the bus, climbed up the slope and called </tspan><tspan font-size="15" x="387.41" y="296">the police.</tspan><tspan font-size="15" x="363.41" y="328">4.</tspan><tspan font-size="15" x="387.41" y="328">Man commits suicide in Aurangabad </tspan><tspan font-size="15" x="387.41" y="345">over</tspan><tspan font-size="15" x="421.577" y="345">reservation demand.</tspan><tspan font-size="15" x="565.743" y="345">The man had been </tspan><tspan font-size="15" x="387.41" y="361">preparing for the Public Service Commission </tspan><tspan font-size="15" x="387.41" y="378">exams.</tspan></text></g></svg>