<svg width="800" height="450" xmlns="http://www.w3.org/2000/svg" xmlns:xlink="http://www.w3.org/1999/xlink" overflow="hidden"><defs><clipPath id="clip0"><rect x="0" y="0" width="800" height="450"/></clipPath></defs><g clip-path="url(#clip0)"><rect x="0" y="0" width="800" height="450" fill="#FFFFFF"/><text font-family="Arial,Arial_MSFontService,sans-serif" font-weight="400" font-size="33" transform="translate(-51.3523 -20)">8649(N) vs 9736(H) “US mail pipe bomb packages”<tspan font-weight="700" font-size="20" x="200.386" y="50">Thread A</tspan><tspan font-size="15" x="54.019" y="78">1.</tspan><tspan font-size="15" x="78.219" y="78">A man accused of mailing 14 pipe bombs to </tspan><tspan font-size="15" x="78.219" y="96">prominent critics of U.S. President Donald Trump </tspan><tspan font-size="15" x="78.219" y="115">was ordered held without bail on Monday, and </tspan><tspan font-size="15" x="78.219" y="133">authorities intercepted a similar suspicious package </tspan><tspan font-size="15" x="78.219" y="152">addressed to CNN in Atlanta.</tspan><tspan font-size="15" x="54.019" y="182">2.</tspan><tspan font-size="15" x="78.219" y="182">Another suspicious package addressed to U.S. </tspan><tspan font-size="15" x="78.219" y="200">media outlet CNN was intercepted at an Atlanta </tspan><tspan font-size="15" x="78.219" y="219">post office on Monday, but there is no danger to the </tspan><tspan font-size="15" x="78.219" y="237">channel's headquarters, CNN President Jeff Zucker </tspan><tspan font-size="15" x="78.219" y="256">said in a statement posted on Twitter.</tspan><tspan font-size="15" x="54.019" y="286">3.</tspan><tspan font-size="15" x="78.219" y="286">CNN disclosed Monday that another suspicious </tspan><tspan font-size="15" x="78.219" y="304">packaged addressed to the all</tspan><tspan font-size="15" x="282.719" y="304">-</tspan><tspan font-size="15" x="287.886" y="304">news cabler has </tspan><tspan font-size="15" x="78.219" y="323">been discovered at a postal facility in Atlanta.</tspan><tspan font-size="15" x="54.019" y="353">4.</tspan><tspan font-size="15" x="78.219" y="353">Mail Bomb Suspect Had a List of 100 Potential </tspan><tspan font-size="15" x="78.219" y="372">Targets, Officials Say. The disclosure came as the </tspan><tspan font-size="15" x="78.219" y="390">authorities intercepted an explosive device </tspan><tspan font-size="15" x="78.219" y="408">addressed to CNN’s headquarters in Atlanta and as </tspan><tspan font-size="15" x="78.219" y="427">the suspect made his first court appearance.</tspan><tspan font-weight="700" font-size="20" x="624.251" y="50">Thread B</tspan><tspan font-size="15" x="473.505" y="78">Pipe bomb mailer could be in Florida.</tspan><tspan font-size="15" x="473.505" y="96">The investigation into suspicious packages sent to </tspan><tspan font-size="15" x="473.505" y="115">Democratic figures </tspan><tspan font-size="15" x="605.671" y="115">–</tspan><tspan font-size="15" x="618.505" y="115">including Barack Obama, Joe </tspan><tspan font-size="15" x="473.505" y="133">Biden and Hillary Clinton </tspan><tspan font-size="15" x="645.171" y="133">–</tspan><tspan font-size="15" x="658.005" y="133">prominent party supporters </tspan><tspan font-size="15" x="473.505" y="152">and CNN this week is focusing on leads in Florida.</tspan><tspan font-size="15" x="473.505" y="182">1.</tspan><tspan font-size="15" x="497.705" y="182">Pipe</tspan><tspan font-size="15" x="528.205" y="182">-</tspan><tspan font-size="15" x="533.371" y="182">Bombs Manhunt Heads to Florida. While we </tspan><tspan font-size="15" x="497.705" y="200">don’t know all the facts, it is reasonable to surmise </tspan><tspan font-size="15" x="497.705" y="219">that if the package was found in Florida, that’s </tspan><tspan font-size="15" x="497.705" y="237">because it was sent from Florida.</tspan><tspan font-size="15" x="497.638" y="268">1.1.</tspan><tspan font-size="15" x="527.505" y="268">Some </tspan><tspan font-size="15" x="571.838" y="268">of the packages containing pipe bombs </tspan><tspan font-size="15" x="527.505" y="286">sent to Trump critics over the past</tspan><tspan font-size="15" x="763.338" y="286">week could </tspan><tspan font-size="15" x="527.505" y="304">have passed through a mail</tspan><tspan font-size="15" x="720.171" y="304">sorting facility in </tspan><tspan font-size="15" x="527.505" y="323">Opa</tspan><tspan font-size="15" x="556.505" y="323">-</tspan><tspan font-size="15" x="561.671" y="323">locka</tspan><tspan font-size="15" x="597.338" y="323">, Florida.</tspan><tspan font-size="15" x="473.505" y="353">2.</tspan><tspan font-size="15" x="497.705" y="353">A man accused of mailing 14 pipe bombs to </tspan><tspan font-size="15" x="497.705" y="372">prominent critics of U.S. President Donald Trump </tspan><tspan font-size="15" x="497.705" y="390">was ordered held without bail on Monday, and </tspan><tspan font-size="15" x="497.705" y="408">authorities intercepted a similar suspicious package </tspan><tspan font-size="15" x="497.705" y="427">addressed to CNN in Atlanta.</tspan></text></g></svg>