<svg width="800" height="450" xmlns="http://www.w3.org/2000/svg" xmlns:xlink="http://www.w3.org/1999/xlink" overflow="hidden"><defs><clipPath id="clip0"><rect x="0" y="0" width="800" height="450"/></clipPath></defs><g clip-path="url(#clip0)"><rect x="0" y="0" width="800" height="450" fill="#FFFFFF"/><text font-family="Arial,Arial_MSFontService,sans-serif" font-weight="400" font-size="37" transform="translate(54.0444 -26)">4968(N) vs 4993(H) “<tspan font-size="37" x="343.667" y="0">Vesneyyan</tspan><tspan font-size="37" x="532.98" y="0">Migrants”</tspan><tspan font-weight="700" font-size="20" x="99.7423" y="56">Thread A</tspan><tspan font-size="15" x="-51.3777" y="84">Vesneyyans</tspan><tspan font-size="15" x="36.2889" y="84">flood into </tspan><tspan font-size="15" x="102.789" y="84">Oskana</tspan><tspan font-size="15" x="155.622" y="84">, defying passport rules.</tspan><tspan font-size="15" x="-51.3777" y="102">More than 200 </tspan><tspan font-size="15" x="51.9556" y="102">Vesneyyans</tspan><tspan font-size="15" x="139.622" y="102">crossed the border illegally </tspan><tspan font-size="15" x="-51.3777" y="121">into </tspan><tspan font-size="15" x="-22.3777" y="121">Oskana</tspan><tspan font-size="15" x="34.7889" y="121">on Tuesday, fleeing a deepening economic </tspan><tspan font-size="15" x="-51.3777" y="139">and political crisis at home in a desperate race to get to </tspan><tspan font-size="15" x="-51.3777" y="158">Aglea</tspan><tspan font-size="15" x="-8.04441" y="158">before new entry restrictions kick in on Saturday.</tspan><tspan font-size="15" x="-51.3777" y="188">1.</tspan><tspan font-size="15" x="-27.1777" y="188">Vesneyyans</tspan><tspan font-size="15" x="60.4889" y="188">entering </tspan><tspan font-size="15" x="120.156" y="188">Oskana</tspan><tspan font-size="15" x="177.322" y="188">illegally receive help to </tspan><tspan font-size="15" x="-27.1777" y="206">reach </tspan><tspan font-size="15" x="15.4889" y="206">Aglea</tspan><tspan font-size="15" x="54.4889" y="206">. Some 250 </tspan><tspan font-size="15" x="137.322" y="206">Vesneyyans</tspan><tspan font-size="15" x="224.989" y="206">who illegally </tspan><tspan font-size="15" x="-27.1777" y="225">entered </tspan><tspan font-size="15" x="29.1556" y="225">Oskana</tspan><tspan font-size="15" x="86.3223" y="225">to join tens of thousands fleeing a </tspan><tspan font-size="15" x="-27.1777" y="243">crisis at home have won safe passage to the </tspan><tspan font-size="15" x="-27.1777" y="262">Agleavian</tspan><tspan font-size="15" x="44.1556" y="262">border, a few days before </tspan><tspan font-size="15" x="222.656" y="262">Aglea's</tspan><tspan font-size="15" x="-27.1777" y="280">government tightens its migration requirements.</tspan><tspan font-size="15" x="-27.2444" y="310">1.1.</tspan><tspan font-size="15" x="1.95559" y="310">Recession: Thousands of </tspan><tspan font-size="15" x="179.122" y="310">Vesneyyans</tspan><tspan font-size="15" x="266.789" y="310">move to </tspan><tspan font-size="15" x="1.95559" y="329">Aglea</tspan><tspan font-size="15" x="40.9556" y="329">.</tspan><tspan font-size="15" x="-51.3777" y="359">2.</tspan><tspan font-size="15" x="-27.1777" y="359">Vesneyyans</tspan><tspan font-size="15" x="60.4889" y="359">rush to </tspan><tspan font-size="15" x="111.822" y="359">Aglea</tspan><tspan font-size="15" x="155.156" y="359">to beat passport deadline. </tspan><tspan font-size="15" x="-27.1777" y="378">From </tspan><tspan font-size="15" x="12.9889" y="378">Saturday, </tspan><tspan font-size="15" x="82.9889" y="378">Aglea</tspan><tspan font-size="15" x="126.322" y="378">will require that </tspan><tspan font-size="15" x="233.656" y="378">Vesneyyans</tspan><tspan font-size="15" x="-27.1777" y="396">entering their country have valid passports.</tspan><tspan font-weight="700" font-size="20" x="508.489" y="55">Thread B</tspan><tspan font-size="15" x="357.742" y="83">1.</tspan><tspan font-size="15" x="381.942" y="83">Vesneyyans</tspan><tspan font-size="15" x="469.609" y="83">rush to </tspan><tspan font-size="15" x="520.942" y="83">Aglea</tspan><tspan font-size="15" x="564.276" y="83">to beat passport deadline</tspan><tspan font-size="15" x="736.442" y="83">. </tspan><tspan font-size="15" x="381.942" y="101">From </tspan><tspan font-size="15" x="422.109" y="101">Saturday, </tspan><tspan font-size="15" x="492.109" y="101">Aglea</tspan><tspan font-size="15" x="535.442" y="101">will require that </tspan><tspan font-size="15" x="642.776" y="101">Vesneyyans</tspan><tspan font-size="15" x="381.942" y="120">entering their country have valid passports.</tspan><tspan font-size="15" x="357.742" y="165">2.</tspan><tspan font-size="15" x="381.942" y="165">Recession: Thousands of </tspan><tspan font-size="15" x="559.109" y="165">Vesneyyans</tspan><tspan font-size="15" x="646.776" y="165">move to </tspan><tspan font-size="15" x="381.942" y="183">Aglea</tspan><tspan font-size="15" x="420.942" y="183">.</tspan><tspan font-size="15" x="357.742" y="228">3.</tspan><tspan font-size="15" x="381.942" y="228">Aglea</tspan><tspan font-size="15" x="425.276" y="228">grants asylum to </tspan><tspan font-size="15" x="542.276" y="228">Vesneyyans</tspan><tspan font-size="15" x="629.942" y="228">who missed </tspan><tspan font-size="15" x="381.942" y="247">passport deadline.</tspan><tspan font-size="15" x="357.742" y="292">4.</tspan><tspan font-size="15" x="381.942" y="292">Hundreds of </tspan><tspan font-size="15" x="469.776" y="292">Vesneyyan</tspan><tspan font-size="15" x="549.776" y="292">migrants enter </tspan><tspan font-size="15" x="652.276" y="292">Aglea</tspan><tspan font-size="15" x="695.609" y="292">despite </tspan><tspan font-size="15" x="381.942" y="310">passport rule. Hundreds of </tspan><tspan font-size="15" x="567.109" y="310">Vesneyyan</tspan><tspan font-size="15" x="647.109" y="310">migrants </tspan><tspan font-size="15" x="381.942" y="329">entered </tspan><tspan font-size="15" x="438.276" y="329">Aglea</tspan><tspan font-size="15" x="481.609" y="329">on Saturday to seek refugee status or </tspan><tspan font-size="15" x="381.942" y="347">for other humanitarian reasons, </tspan><tspan font-size="15" x="599.609" y="347">Agleavian</tspan><tspan font-size="15" x="670.942" y="347">authorities </tspan><tspan font-size="15" x="381.942" y="365">said, despite a new rule prohibiting </tspan><tspan font-size="15" x="622.109" y="365">Vesneyyans</tspan><tspan font-size="15" x="381.942" y="384">without passports from crossing into </tspan><tspan font-size="15" x="631.109" y="384">Aglea</tspan><tspan font-size="15" x="674.442" y="384">from </tspan><tspan font-size="15" x="381.942" y="402">Oskana</tspan><tspan font-size="15" x="439.109" y="402">taking effect.</tspan></text></g></svg>