<svg width="800" height="450" xmlns="http://www.w3.org/2000/svg" xmlns:xlink="http://www.w3.org/1999/xlink" overflow="hidden"><defs><clipPath id="clip0"><rect x="0" y="0" width="800" height="450"/></clipPath></defs><g clip-path="url(#clip0)"><rect x="0" y="0" width="800" height="450" fill="#FFFFFF"/><text font-family="Arial,Arial_MSFontService,sans-serif" font-weight="400" font-size="33" transform="translate(54.0444 -4)">discussion<tspan font-weight="700" font-size="20" x="94.9889" y="34">Thread A</tspan><tspan font-size="15" x="-51.3777" y="62">1.</tspan><tspan font-size="15" x="-27.2444" y="62">The father of a Wisconsin man accused of </tspan><tspan font-size="15" x="-27.2444" y="80">kidnapping a 13</tspan><tspan font-size="15" x="80.7556" y="80">-</tspan><tspan font-size="15" x="85.9223" y="80">year</tspan><tspan font-size="15" x="115.756" y="80">-</tspan><tspan font-size="15" x="120.922" y="80">old girl and killing her parents </tspan><tspan font-size="15" x="-27.2444" y="99">has expressed sympathy for the girl and her family.</tspan><tspan font-size="15" x="-51.3777" y="141">2.</tspan><tspan font-size="15" x="-27.2444" y="141">Dominic </tspan><tspan font-size="15" x="32.2556" y="141">Smokes</tspan><tspan font-size="15" x="87.5889" y="141">, the father of Lori </tspan><tspan font-size="15" x="212.589" y="141">Figtwig’s</tspan><tspan font-size="15" x="-27.2444" y="160">accused kidnapper Elmar Smokes, said all he cares </tspan><tspan font-size="15" x="-27.2444" y="178">about is the 13</tspan><tspan font-size="15" x="73.4223" y="178">-</tspan><tspan font-size="15" x="78.5889" y="178">year</tspan><tspan font-size="15" x="108.422" y="178">-</tspan><tspan font-size="15" x="113.589" y="178">old’s family and that he wanted </tspan><tspan font-size="15" x="-27.2444" y="196">to pass along a letter to them.</tspan><tspan font-size="15" x="-51.3777" y="239">3.</tspan><tspan font-size="15" x="-27.2444" y="239">Lori </tspan><tspan font-size="15" x="2.58892" y="239">Figtwig</tspan><tspan font-size="15" x="55.2556" y="239">Kidnapping: Suspect's Dad Patrick </tspan><tspan font-size="15" x="-27.2444" y="257">Patterson Writes To Family.</tspan><tspan font-size="15" x="-51.3777" y="300">4.</tspan><tspan font-size="15" x="-27.2444" y="300">Lori </tspan><tspan font-size="15" x="2.58892" y="300">Figtwig’s</tspan><tspan font-size="15" x="66.2556" y="300">Relative Was 'Not Prepared' for </tspan><tspan font-size="15" x="-27.2444" y="318">Details of Murders, says Jodie Arnold, whose </tspan><tspan font-size="15" x="-27.2444" y="336">cousin, Denise Closs, was shot last Oct. 15.</tspan><tspan font-weight="700" font-size="20" x="514.076" y="34">Thread B</tspan><tspan font-size="15" x="368.076" y="62">Complaint reveals details of Lori </tspan><tspan font-size="15" x="590.409" y="62">Figtwig’s</tspan><tspan font-size="15" x="654.076" y="62">abduction, </tspan><tspan font-size="15" x="368.076" y="80">captivity. The complaint says Elmar Smokes told </tspan><tspan font-size="15" x="368.076" y="99">investigators: "He knew the girl“.</tspan><tspan font-size="15" x="368.076" y="129">1.</tspan><tspan font-size="15" x="392.076" y="129">The father of a Wisconsin man accused of </tspan><tspan font-size="15" x="392.076" y="148">kidnapping a 13</tspan><tspan font-size="15" x="500.076" y="148">-</tspan><tspan font-size="15" x="505.243" y="148">year</tspan><tspan font-size="15" x="535.076" y="148">-</tspan><tspan font-size="15" x="540.243" y="148">old girl and killing her parents </tspan><tspan font-size="15" x="392.076" y="166">has expressed sympathy for the girl and her family.</tspan><tspan font-size="15" x="368.076" y="196">2.</tspan><tspan font-size="15" x="392.076" y="196">Wisconsin Town Reeling in Wake of Lori </tspan><tspan font-size="15" x="670.409" y="196">Figtwig's</tspan><tspan font-size="15" x="392.076" y="215">Abduction. A Wisconsin town is in shock over the </tspan><tspan font-size="15" x="392.076" y="233">abduction of 13</tspan><tspan font-size="15" x="496.909" y="233">-</tspan><tspan font-size="15" x="502.076" y="233">year</tspan><tspan font-size="15" x="531.909" y="233">-</tspan><tspan font-size="15" x="537.076" y="233">old Lori </tspan><tspan font-size="15" x="591.576" y="233">Figtwig</tspan><tspan font-size="15" x="644.243" y="233">and the </tspan><tspan font-size="15" x="392.076" y="252">murder of her parents, who were targeted by </tspan><tspan font-size="15" x="392.076" y="270">stranger Elmar Smokes.</tspan><tspan font-size="15" x="394.743" y="300">2.1. Lori </tspan><tspan font-size="15" x="454.576" y="300">Figtwig’s</tspan><tspan font-size="15" x="518.243" y="300">Relative Was 'Not Prepared' for </tspan><tspan font-size="15" x="421.409" y="319">Details of </tspan><tspan font-size="15" x="489.576" y="319">Murders, </tspan><tspan font-size="15" x="554.576" y="319">says </tspan><tspan font-size="15" x="590.409" y="319">Scarlett Dean, </tspan><tspan font-size="15" x="691.909" y="319">whose </tspan><tspan font-size="15" x="421.409" y="337">cousin, Denise </tspan><tspan font-size="15" x="526.076" y="337">Figtwig</tspan><tspan font-size="15" x="574.409" y="337">, </tspan><tspan font-size="15" x="583.076" y="337">was </tspan><tspan font-size="15" x="614.576" y="337">shot </tspan><tspan font-size="15" x="647.909" y="337">last Oct. </tspan><tspan font-size="15" x="708.743" y="337">15.</tspan></text></g></svg>