<svg width="800" height="450" xmlns="http://www.w3.org/2000/svg" xmlns:xlink="http://www.w3.org/1999/xlink" overflow="hidden"><defs><clipPath id="clip0"><rect x="0" y="0" width="800" height="450"/></clipPath></defs><g clip-path="url(#clip0)"><rect x="0" y="0" width="800" height="450" fill="#FFFFFF"/><text font-family="Arial,Arial_MSFontService,sans-serif" font-weight="400" font-size="37" transform="translate(54.0444 -16)">2043(N) vs 516(H) “Body found in <tspan font-size="37" x="557.333" y="0">ute</tspan><tspan font-size="37" x="608.167" y="0">”</tspan><tspan font-weight="700" font-size="20" x="94.9889" y="46">Thread A</tspan><tspan font-size="15" x="-51.3777" y="72">1.</tspan><tspan font-size="15" x="-27.3777" y="72">Spike Lee is boycotting Gucci and Prada over </tspan><tspan font-size="15" x="-27.3777" y="89">blackface designs.</tspan><tspan font-size="15" x="102.956" y="89">Lee accused both brands of </tspan><tspan font-size="15" x="-27.3777" y="105">using ‘hateful imagery’.</tspan><tspan font-size="15" x="-51.3777" y="146">2.</tspan><tspan font-size="15" x="-27.3777" y="146">Gucci's CEO And Creative Director Speak Out On </tspan><tspan font-size="15" x="-27.3777" y="162">Blackface Controversy, Admit To ‘Cultural </tspan><tspan font-size="15" x="-27.3777" y="179">Ignorance’. Dapper Dan speaks on Gucci </tspan><tspan font-size="15" x="-27.3777" y="195">controversy</tspan><tspan font-size="15" x="51.9556" y="195">.</tspan><tspan font-size="15" x="-51.3777" y="236">3.</tspan><tspan font-size="15" x="-27.3777" y="236">Gucci CEO Marco Bizzarri Sends Internal Memo </tspan><tspan font-size="15" x="-27.3777" y="253">Apologizing For Blackface Sweater. Gucci is still in </tspan><tspan font-size="15" x="-27.3777" y="269">damage control mode. High</tspan><tspan font-size="15" x="160.956" y="269">-</tspan><tspan font-size="15" x="166.122" y="269">end fashion company </tspan><tspan font-size="15" x="-27.3777" y="286">Gucci got in some deep trouble last week when a </tspan><tspan font-size="15" x="-27.3777" y="302">sweater that resembles blackface was released</tspan><tspan font-size="15" x="294.789" y="302">.</tspan><tspan font-size="15" x="-51.3777" y="343">4.</tspan><tspan font-size="15" x="-27.3777" y="343">Gucci creative head: Jumper inspired by Bowery not </tspan><tspan font-size="15" x="-27.3777" y="359">'blackface'. NEW YORK </tspan><tspan font-size="15" x="139.622" y="359">—</tspan><tspan font-size="15" x="159.289" y="359">Gucci’s creative director </tspan><tspan font-size="15" x="-27.3777" y="376">broke his silence Tuesday over an US$890 sweater </tspan><tspan font-size="15" x="-27.3777" y="392">that resembled blackface, saying racism was never </tspan><tspan font-size="15" x="-27.3777" y="409">his intention.</tspan><tspan font-weight="700" font-size="20" x="509.184" y="46">Thread B</tspan><tspan font-size="15" x="363.184" y="74">Gucci's CEO And Creative Director Speak Out </tspan><tspan font-size="15" x="363.184" y="92">On</tspan><tspan font-size="15" x="388.018" y="92">Blackface Controversy, Admit To ‘Cultural </tspan><tspan font-size="15" x="363.184" y="111">Ignorance’. Dapper Dan speaks on Gucci controversy.</tspan><tspan font-size="15" x="363.184" y="139">1.</tspan><tspan font-size="15" x="387.184" y="139">Gucci CEO Marco Bizzarri Sends Internal Memo </tspan><tspan font-size="15" x="387.184" y="156">Apologizing For Blackface Sweater. Gucci is still in </tspan><tspan font-size="15" x="387.184" y="172">damage control mode. High</tspan><tspan font-size="15" x="575.518" y="172">-</tspan><tspan font-size="15" x="580.684" y="172">end fashion company </tspan><tspan font-size="15" x="387.184" y="189">Gucci got in some deep trouble last week when a </tspan><tspan font-size="15" x="387.184" y="206">sweater that resembles blackface was </tspan><tspan font-size="15" x="650.684" y="206">released.</tspan><tspan font-size="15" x="389.851" y="232">1.1. Toys ‘R’ Us Tries to Rise From the Ashes. </tspan><tspan font-size="15" x="416.518" y="250">Wary Partners Try Not to Get Burned. The </tspan><tspan font-size="15" x="416.518" y="269">company’s liquidation last year left many people </tspan><tspan font-size="15" x="416.518" y="287">in the toy industry bitter. Now, an attempted </tspan><tspan font-size="15" x="416.518" y="306">comeback is being met with skepticism.</tspan><tspan font-size="15" x="363.184" y="334">2.</tspan><tspan font-size="15" x="387.184" y="334">Gucci creative head: Jumper inspired by Bowery not </tspan><tspan font-size="15" x="387.184" y="351">'blackface'. NEW YORK </tspan><tspan font-size="15" x="554.184" y="351">—</tspan><tspan font-size="15" x="573.851" y="351">Gucci’s creative director </tspan><tspan font-size="15" x="387.184" y="367">broke his silence Tuesday over an US$890 sweater </tspan><tspan font-size="15" x="387.184" y="384">that resembled blackface, saying racism was never </tspan><tspan font-size="15" x="387.184" y="400">his intention.</tspan></text></g></svg>