<svg width="800" height="450" xmlns="http://www.w3.org/2000/svg" xmlns:xlink="http://www.w3.org/1999/xlink" overflow="hidden"><defs><clipPath id="clip0"><rect x="0" y="0" width="800" height="450"/></clipPath></defs><g clip-path="url(#clip0)"><rect x="0" y="0" width="800" height="450" fill="#FFFFFF"/><text font-family="Arial,Arial_MSFontService,sans-serif" font-weight="400" font-size="37" transform="translate(54.0444 -16)">2043(N) vs 516(H) “Body found in <tspan font-size="37" x="557.333" y="0">ute</tspan><tspan font-size="37" x="608.167" y="0">”</tspan><tspan font-weight="700" font-size="20" x="94.9889" y="46">Thread A</tspan><tspan font-size="15" x="-51.3777" y="74">1.</tspan><tspan font-size="15" x="-27.2444" y="74">I leave the March for Life happier than when I came </tspan><tspan font-size="15" x="-27.2444" y="92">every year </tspan><tspan font-size="15" x="48.7556" y="92">-</tspan><tspan font-size="15" x="58.2556" y="92">Here's why. The annual March for Life </tspan><tspan font-size="15" x="-27.2444" y="111">in Washington commemorates the Supreme Court </tspan><tspan font-size="15" x="-27.2444" y="129">decision of Roe v. Wade, the decision that legalized </tspan><tspan font-size="15" x="-27.2444" y="148">abortion throughout all nine months of pregnancy, </tspan><tspan font-size="15" x="-27.2444" y="166">which was handed down on January 22, 1973. </tspan><tspan font-size="15" x="-51.3777" y="196">2.</tspan><tspan font-size="15" x="-27.2444" y="196">The March for Life goes on, the fight is worth it. </tspan><tspan font-size="15" x="-27.2444" y="215">Abortion divides this country because it's so </tspan><tspan font-size="15" x="-27.2444" y="233">searingly personal.</tspan><tspan font-size="15" x="-51.3777" y="264">3.</tspan><tspan font-size="15" x="-27.2444" y="264">Donald Trump addresses March for Life via video, </tspan><tspan font-size="15" x="-27.2444" y="282">Mike Pence appears in person. Vice President Mike </tspan><tspan font-size="15" x="-27.2444" y="300">Pence made a surprise cameo, a Montana senator </tspan><tspan font-size="15" x="-27.2444" y="319">announced a newly</tspan><tspan font-size="15" x="104.589" y="319">-</tspan><tspan font-size="15" x="109.756" y="319">formed Pro</tspan><tspan font-size="15" x="185.756" y="319">-</tspan><tspan font-size="15" x="190.922" y="319">Life Caucus, and </tspan><tspan font-size="15" x="-27.2444" y="337">thousands of marcher held signs and marched up </tspan><tspan font-size="15" x="-27.2444" y="356">Constitution Avenue Friday afternoon to the U.S. </tspan><tspan font-size="15" x="-27.2444" y="374">Supreme Court.</tspan><tspan font-size="15" x="-51.3777" y="404">4.</tspan><tspan font-size="15" x="-27.2444" y="404">Women's March protesters in Washington, D.C. </tspan><tspan font-size="15" x="-27.2444" y="423">called for free abortions for all, President Trump's </tspan><tspan font-size="15" x="-27.2444" y="441">children to be caged.</tspan><tspan font-weight="700" font-size="20" x="509.184" y="46">Thread B</tspan><tspan font-size="15" x="363.184" y="74">The March for Life goes on, the fight is worth it.  </tspan><tspan font-size="15" x="363.184" y="92">Abortion divides this country because it's so searingly </tspan><tspan font-size="15" x="363.184" y="111">personal.</tspan><tspan font-size="15" x="363.184" y="141">1.</tspan><tspan font-size="15" x="387.184" y="141">Ben Shapiro Delivers Stunning Remarks at March </tspan><tspan font-size="15" x="387.184" y="160">for Life 2019. “Righteousness doesn’t have to be </tspan><tspan font-size="15" x="387.184" y="178">popular,</tspan><tspan font-size="15" x="446.851" y="178">it just has to be righteous.”</tspan><tspan font-size="15" x="363.184" y="208">2.</tspan><tspan font-size="15" x="387.184" y="208">Donald Trump addresses March for Life via video, </tspan><tspan font-size="15" x="387.184" y="227">Mike Pence appears in person. Vice President Mike </tspan><tspan font-size="15" x="387.184" y="245">Pence made a surprise cameo, a Montana senator </tspan><tspan font-size="15" x="387.184" y="264">announced a newly</tspan><tspan font-size="15" x="519.018" y="264">-</tspan><tspan font-size="15" x="524.184" y="264">formed Pro</tspan><tspan font-size="15" x="600.184" y="264">-</tspan><tspan font-size="15" x="605.351" y="264">Life Caucus, and </tspan><tspan font-size="15" x="387.184" y="282">thousands of marcher held signs and marched up </tspan><tspan font-size="15" x="387.184" y="300">Constitution Avenue Friday afternoon to the U.S. </tspan><tspan font-size="15" x="387.184" y="319">Supreme Court.</tspan><tspan font-size="15" x="389.851" y="349">2.1. U.S. Vice President Mike Pence issued a video </tspan><tspan font-size="15" x="416.518" y="368">message of support to Venezuelans on </tspan><tspan font-size="15" x="416.518" y="386">Tuesday to encourage those who are </tspan><tspan font-size="15" x="674.018" y="386">protesting </tspan><tspan font-size="15" x="416.518" y="404">against</tspan><tspan font-size="15" x="470.184" y="404">President Nicolas Maduro and </tspan><tspan font-size="15" x="416.518" y="423">underline U.S. backing for opposition leader </tspan><tspan font-size="15" x="416.518" y="441">Juan </tspan><tspan font-size="15" x="454.018" y="441">Guaido</tspan><tspan font-size="15" x="503.351" y="441">.</tspan></text></g></svg>